<svg width="104" height="17" viewBox="0 0 104 17" fill="none" xmlns="http://www.w3.org/2000/svg">
<path d="M5.562 13.252C4.59 13.252 3.732 13.078 2.988 12.73C2.244 12.382 1.662 11.884 1.242 11.236C0.822 10.588 0.612 9.808 0.612 8.896V8.392H2.952V8.896C2.952 9.652 3.186 10.222 3.654 10.606C4.122 10.978 4.758 11.164 5.562 11.164C6.378 11.164 6.984 11.002 7.38 10.678C7.788 10.354 7.992 9.94 7.992 9.436C7.992 9.088 7.89 8.806 7.686 8.59C7.494 8.374 7.206 8.2 6.822 8.068C6.45 7.924 5.994 7.792 5.454 7.672L5.04 7.582C4.176 7.39 3.432 7.15 2.808 6.862C2.196 6.562 1.722 6.172 1.386 5.692C1.062 5.212 0.9 4.588 0.9 3.82C0.9 3.052 1.08 2.398 1.44 1.858C1.812 1.306 2.328 0.886 2.988 0.598C3.66 0.297999 4.446 0.147999 5.346 0.147999C6.246 0.147999 7.044 0.303999 7.74 0.616C8.448 0.915999 9 1.372 9.396 1.984C9.804 2.584 10.008 3.34 10.008 4.252V4.792H7.668V4.252C7.668 3.772 7.572 3.388 7.38 3.1C7.2 2.8 6.936 2.584 6.588 2.452C6.24 2.308 5.826 2.236 5.346 2.236C4.626 2.236 4.092 2.374 3.744 2.65C3.408 2.914 3.24 3.28 3.24 3.748C3.24 4.06 3.318 4.324 3.474 4.54C3.642 4.756 3.888 4.936 4.212 5.08C4.536 5.224 4.95 5.35 5.454 5.458L5.868 5.548C6.768 5.74 7.548 5.986 8.208 6.286C8.88 6.586 9.402 6.982 9.774 7.474C10.146 7.966 10.332 8.596 10.332 9.364C10.332 10.132 10.134 10.81 9.738 11.398C9.354 11.974 8.802 12.43 8.082 12.766C7.374 13.09 6.534 13.252 5.562 13.252ZM15.578 13.144C14.882 13.144 14.27 12.988 13.742 12.676C13.226 12.352 12.824 11.908 12.536 11.344C12.248 10.78 12.104 10.132 12.104 9.4V4.072H14.372V9.22C14.372 9.892 14.534 10.396 14.858 10.732C15.194 11.068 15.668 11.236 16.28 11.236C16.976 11.236 17.516 11.008 17.9 10.552C18.284 10.084 18.476 9.436 18.476 8.608V4.072H20.744V13H18.512V11.83H18.188C18.044 12.13 17.774 12.424 17.378 12.712C16.982 13 16.382 13.144 15.578 13.144ZM21.6118 16.6V14.656H22.7998C23.1358 14.656 23.3038 14.476 23.3038 14.116V4.072H25.5718V14.584C25.5718 15.196 25.3918 15.682 25.0318 16.042C24.6718 16.414 24.1918 16.6 23.5918 16.6H21.6118ZM24.4378 3.028C24.0298 3.028 23.6818 2.896 23.3938 2.632C23.1178 2.368 22.9798 2.02 22.9798 1.588C22.9798 1.156 23.1178 0.808 23.3938 0.543999C23.6818 0.279999 24.0298 0.147999 24.4378 0.147999C24.8578 0.147999 25.2058 0.279999 25.4818 0.543999C25.7578 0.808 25.8958 1.156 25.8958 1.588C25.8958 2.02 25.7578 2.368 25.4818 2.632C25.2058 2.896 24.8578 3.028 24.4378 3.028ZM28.0842 13V0.399999H30.3522V5.17H30.6762C30.7722 4.978 30.9222 4.786 31.1262 4.594C31.3302 4.402 31.6002 4.246 31.9362 4.126C32.2842 3.994 32.7222 3.928 33.2502 3.928C33.9462 3.928 34.5522 4.09 35.0682 4.414C35.5962 4.726 36.0042 5.164 36.2922 5.728C36.5802 6.28 36.7242 6.928 36.7242 7.672V13H34.4562V7.852C34.4562 7.18 34.2882 6.676 33.9522 6.34C33.6282 6.004 33.1602 5.836 32.5482 5.836C31.8522 5.836 31.3122 6.07 30.9282 6.538C30.5442 6.994 30.3522 7.636 30.3522 8.464V13H28.0842ZM41.948 13.252C41.312 13.252 40.742 13.144 40.238 12.928C39.734 12.7 39.332 12.376 39.032 11.956C38.744 11.524 38.6 11.002 38.6 10.39C38.6 9.778 38.744 9.268 39.032 8.86C39.332 8.44 39.74 8.128 40.256 7.924C40.784 7.708 41.384 7.6 42.056 7.6H44.504V7.096C44.504 6.676 44.372 6.334 44.108 6.07C43.844 5.794 43.424 5.656 42.848 5.656C42.284 5.656 41.864 5.788 41.588 6.052C41.312 6.304 41.132 6.634 41.048 7.042L38.96 6.34C39.104 5.884 39.332 5.47 39.644 5.098C39.968 4.714 40.394 4.408 40.922 4.18C41.462 3.94 42.116 3.82 42.884 3.82C44.06 3.82 44.99 4.114 45.674 4.702C46.358 5.29 46.7 6.142 46.7 7.258V10.588C46.7 10.948 46.868 11.128 47.204 11.128H47.924V13H46.412C45.968 13 45.602 12.892 45.314 12.676C45.026 12.46 44.882 12.172 44.882 11.812V11.794H44.54C44.492 11.938 44.384 12.13 44.216 12.37C44.048 12.598 43.784 12.802 43.424 12.982C43.064 13.162 42.572 13.252 41.948 13.252ZM42.344 11.416C42.98 11.416 43.496 11.242 43.892 10.894C44.3 10.534 44.504 10.06 44.504 9.472V9.292H42.218C41.798 9.292 41.468 9.382 41.228 9.562C40.988 9.742 40.868 9.994 40.868 10.318C40.868 10.642 40.994 10.906 41.246 11.11C41.498 11.314 41.864 11.416 42.344 11.416ZM50.9445 13L48.1005 4.072H50.5125L52.5825 11.344H52.9065L54.9765 4.072H57.3885L54.5445 13H50.9445ZM58.8618 13V0.399999H63.2718L65.4498 11.38H65.7738L67.9518 0.399999H72.3618V13H70.0578V2.146H69.7338L67.5738 13H63.6498L61.4898 2.146H61.1658V13H58.8618ZM74.8069 13V4.072H77.0749V13H74.8069ZM75.9409 3.028C75.5329 3.028 75.1849 2.896 74.8969 2.632C74.6209 2.368 74.4829 2.02 74.4829 1.588C74.4829 1.156 74.6209 0.808 74.8969 0.543999C75.1849 0.279999 75.5329 0.147999 75.9409 0.147999C76.3609 0.147999 76.7089 0.279999 76.9849 0.543999C77.2609 0.808 77.3989 1.156 77.3989 1.588C77.3989 2.02 77.2609 2.368 76.9849 2.632C76.7089 2.896 76.3609 3.028 75.9409 3.028ZM83.0081 13C82.4201 13 81.9401 12.82 81.5681 12.46C81.2081 12.088 81.0281 11.596 81.0281 10.984V5.944H78.7961V4.072H81.0281V1.3H83.2961V4.072H85.7441V5.944H83.2961V10.588C83.2961 10.948 83.4641 11.128 83.8001 11.128H85.5281V13H83.0081ZM87.7971 13V4.072H90.0291V5.08H90.3531C90.4851 4.72 90.7011 4.456 91.0011 4.288C91.3131 4.12 91.6731 4.036 92.0811 4.036H93.1611V6.052H92.0451C91.4691 6.052 90.9951 6.208 90.6231 6.52C90.2511 6.82 90.0651 7.288 90.0651 7.924V13H87.7971ZM97.4949 13.252C96.8589 13.252 96.2889 13.144 95.7849 12.928C95.2809 12.7 94.8789 12.376 94.5789 11.956C94.2909 11.524 94.1469 11.002 94.1469 10.39C94.1469 9.778 94.2909 9.268 94.5789 8.86C94.8789 8.44 95.2869 8.128 95.8029 7.924C96.3309 7.708 96.9309 7.6 97.6029 7.6H100.051V7.096C100.051 6.676 99.9189 6.334 99.6549 6.07C99.3909 5.794 98.9709 5.656 98.3949 5.656C97.8309 5.656 97.4109 5.788 97.1349 6.052C96.8589 6.304 96.6789 6.634 96.5949 7.042L94.5069 6.34C94.6509 5.884 94.8789 5.47 95.1909 5.098C95.5149 4.714 95.9409 4.408 96.4689 4.18C97.0089 3.94 97.6629 3.82 98.4309 3.82C99.6069 3.82 100.537 4.114 101.221 4.702C101.905 5.29 102.247 6.142 102.247 7.258V10.588C102.247 10.948 102.415 11.128 102.751 11.128H103.471V13H101.959C101.515 13 101.149 12.892 100.861 12.676C100.573 12.46 100.429 12.172 100.429 11.812V11.794H100.087C100.039 11.938 99.9309 12.13 99.7629 12.37C99.5949 12.598 99.3309 12.802 98.9709 12.982C98.6109 13.162 98.1189 13.252 97.4949 13.252ZM97.8909 11.416C98.5269 11.416 99.0429 11.242 99.4389 10.894C99.8469 10.534 100.051 10.06 100.051 9.472V9.292H97.7649C97.3449 9.292 97.0149 9.382 96.7749 9.562C96.5349 9.742 96.4149 9.994 96.4149 10.318C96.4149 10.642 96.5409 10.906 96.7929 11.11C97.0449 11.314 97.4109 11.416 97.8909 11.416Z" fill="#0D1C17"/>
</svg>
